<svg width="100" height="100" xmlns="http://www.w3.org/2000/svg" viewBox="0 0 100 100">
  <!-- Flask Body -->
  <path d="M50 20 L30 80 Q30 85 35 85 L65 85 Q70 85 70 80 L50 20 Z" fill="#a6d8f0" stroke="#333" stroke-width="2"/>
  
  <!-- Flask Neck -->
  <rect x="45" y="10" width="10" height="10" fill="#a6d8f0" stroke="#333" stroke-width="2"/>
  
  <!-- Liquid in Flask -->
  <path d="M35 70 Q35 75 40 75 L60 75 Q65 75 65 70 L65 60 Q65 55 60 55 L40 55 Q35 55 35 60 Z" fill="#4a90e2" stroke="#333" stroke-width="1"/>
  
  <!-- Bubbles -->
  <circle cx="40" cy="65" r="3" fill="#fff"/>
  <circle cx="50" cy="60" r="2" fill="#fff"/>
  <circle cx="60" cy="65" r="3" fill="#fff"/>
  
  <!-- Molecular Structure (Hexagon) -->
  <circle cx="80" cy="30" r="5" fill="#ffcc00" stroke="#333" stroke-width="1"/>
  <line x1="80" y1="30" x2="90" y2="40" stroke="#333" stroke-width="1"/>
  <circle cx="90" cy="40" r="5" fill="#ffcc00" stroke="#333" stroke-width="1"/>
  <line x1="90" y1="40" x2="80" y2="50" stroke="#333" stroke-width="1"/>
  <circle cx="80" cy="50" r="5" fill="#ffcc00" stroke="#333" stroke-width="1"/>
  <line x1="80" y1="50" x2="70" y2="40" stroke="#333" stroke-width="1"/>
  <circle cx="70" cy="40" r="5" fill="#ffcc00" stroke="#333" stroke-width="1"/>
  <line x1="70" y1="40" x2="80" y2="30" stroke="#333" stroke-width="1"/>
</svg>